{
  "accessors": [
    {
      "bufferView": 2,
      "componentType": 5126,
      "count": 2481,
      "max": [
        46.70018005371094,
        8.729097366333008,
        0.1842799186706543
      ],
      "min": [
        37.50121307373047,
        -0.5346050262451172,
        -9.007930755615234
      ],
      "type": "VEC3"
    },
    {
      "bufferView": 2,
      "byteOffset": 29772,
      "componentType": 5126,
      "count": 2481,
      "max": [
        0.9998340010643005,
        0.999919593334198,
        0.9997960329055786
      ],
      "min": [
        -0.9998340010643005,
        -0.999919593334198,
        -0.9997960329055786
      ],
      "type": "VEC3"
    },
    {
      "bufferView": 1,
      "componentType": 5126,
      "count": 2481,
      "max": [
        0.9979358911514282,
        1.0858914852142334
      ],
      "min": [
        -0.005956470966339111,
        -0.05589151382446289
      ],
      "type": "VEC2"
    },
    {
      "bufferView": 0,
      "componentType": 5125,
      "count": 13464,
      "type": "SCALAR"
    },
    {
      "bufferView": 2,
      "byteOffset": 59544,
      "componentType": 5126,
      "count": 2477,
      "max": [
        26.808887481689453,
        8.662341117858887,
        1.1091666221618652
      ],
      "min": [
        17.60971450805664,
        -0.6021300554275513,
        -8.082834243774414
      ],
      "type": "VEC3"
    },
    {
      "bufferView": 2,
      "byteOffset": 89268,
      "componentType": 5126,
      "count": 2477,
      "max": [
        0.9998615980148315,
        0.9992309808731079,
        0.9990926384925842
      ],
      "min": [
        -0.9998615980148315,
        -0.9992309808731079,
        -0.9990926384925842
      ],
      "type": "VEC3"
    },
    {
      "bufferView": 1,
      "byteOffset": 19848,
      "componentType": 5126,
      "count": 2477,
      "max": [
        1.0543452501296997,
        1.1155844926834106
      ],
      "min": [
        -0.0023897597566246986,
        -0.09208276122808456
      ],
      "type": "VEC2"
    },
    {
      "bufferView": 0,
      "byteOffset": 53856,
      "componentType": 5125,
      "count": 13464,
      "type": "SCALAR"
    },
    {
      "bufferView": 2,
      "byteOffset": 118992,
      "componentType": 5126,
      "count": 9217,
      "max": [
        19.24148941040039,
        7.925334453582764,
        -0.3875539302825928
      ],
      "min": [
        17.636018753051758,
        5.293116569519043,
        -2.0309345722198486
      ],
      "type": "VEC3"
    },
    {
      "bufferView": 2,
      "byteOffset": 229596,
      "componentType": 5126,
      "count": 9217,
      "max": [
        0.9998284578323364,
        0.9969271421432495,
        0.9997368454933167
      ],
      "min": [
        -0.9999383687973022,
        -0.9909265041351318,
        -0.999557614326477
      ],
      "type": "VEC3"
    },
    {
      "bufferView": 1,
      "byteOffset": 39664,
      "componentType": 5126,
      "count": 9217,
      "max": [
        0.6439999938011169,
        0.7929999828338623
      ],
      "min": [
        0.335999995470047,
        0.2669999897480011
      ],
      "type": "VEC2"
    },
    {
      "bufferView": 0,
      "byteOffset": 107712,
      "componentType": 5125,
      "count": 54720,
      "type": "SCALAR"
    },
    {
      "bufferView": 2,
      "byteOffset": 340200,
      "componentType": 5126,
      "count": 2481,
      "max": [
        56.5358772277832,
        8.6818265914917,
        0.5068182945251465
      ],
      "min": [
        47.3441276550293,
        -0.5719505548477173,
        -8.68089485168457
      ],
      "type": "VEC3"
    },
    {
      "bufferView": 2,
      "byteOffset": 369972,
      "componentType": 5126,
      "count": 2481,
      "max": [
        0.9990562796592712,
        0.9993693828582764,
        0.998609721660614
      ],
      "min": [
        -0.9990562796592712,
        -0.9993693828582764,
        -0.998609721660614
      ],
      "type": "VEC3"
    },
    {
      "bufferView": 1,
      "byteOffset": 113400,
      "componentType": 5126,
      "count": 2481,
      "max": [
        0.9905210733413696,
        0.9906889796257019
      ],
      "min": [
        0.006163448095321655,
        0.040739208459854126
      ],
      "type": "VEC2"
    },
    {
      "bufferView": 0,
      "byteOffset": 326592,
      "componentType": 5125,
      "count": 13464,
      "type": "SCALAR"
    },
    {
      "bufferView": 2,
      "byteOffset": 399744,
      "componentType": 5126,
      "count": 2315,
      "max": [
        17.625591278076172,
        8.80109691619873,
        2.0769853591918945
      ],
      "min": [
        8.426843643188477,
        -0.4419589042663574,
        -7.1184492111206055
      ],
      "type": "VEC3"
    },
    {
      "bufferView": 2,
      "byteOffset": 427524,
      "componentType": 5126,
      "count": 2315,
      "max": [
        0.9998224377632141,
        0.999863862991333,
        0.999396562576294
      ],
      "min": [
        -0.9998217225074768,
        -0.9998650550842285,
        -0.9993972778320313
      ],
      "type": "VEC3"
    },
    {
      "bufferView": 1,
      "byteOffset": 133248,
      "componentType": 5126,
      "count": 2315,
      "max": [
        2.522886276245117,
        0.9891734719276428
      ],
      "min": [
        -1.5657901763916016,
        0.04093974828720093
      ],
      "type": "VEC2"
    },
    {
      "bufferView": 0,
      "byteOffset": 380448,
      "componentType": 5125,
      "count": 13464,
      "type": "SCALAR"
    },
    {
      "bufferView": 2,
      "byteOffset": 455304,
      "componentType": 5126,
      "count": 2477,
      "max": [
        7.730949401855469,
        8.659706115722656,
        2.2365760803222656
      ],
      "min": [
        -1.4681549072265625,
        -0.6091746091842651,
        -6.962291717529297
      ],
      "type": "VEC3"
    },
    {
      "bufferView": 2,
      "byteOffset": 485028,
      "componentType": 5126,
      "count": 2477,
      "max": [
        0.999870777130127,
        0.9997066855430603,
        0.9998358488082886
      ],
      "min": [
        -0.999870777130127,
        -0.9997066855430603,
        -0.9998358488082886
      ],
      "type": "VEC3"
    },
    {
      "bufferView": 1,
      "byteOffset": 151768,
      "componentType": 5126,
      "count": 2477,
      "max": [
        0.9932195544242859,
        1.0493102073669434
      ],
      "min": [
        -0.019077062606811523,
        -0.019310295581817627
      ],
      "type": "VEC2"
    },
    {
      "bufferView": 0,
      "byteOffset": 434304,
      "componentType": 5125,
      "count": 13464,
      "type": "SCALAR"
    },
    {
      "bufferView": 2,
      "byteOffset": 514752,
      "componentType": 5126,
      "count": 512,
      "max": [
        35.450782775878906,
        5.466946601867676,
        0.7565121650695801
      ],
      "min": [
        29.223163604736328,
        3.6586780548095703,
        0.4328884482383728
      ],
      "type": "VEC3"
    },
    {
      "bufferView": 2,
      "byteOffset": 520896,
      "componentType": 5126,
      "count": 512,
      "max": [
        0.999761700630188,
        0.9974168539047241,
        0.9972472786903381
      ],
      "min": [
        -0.9998238682746887,
        -0.9973813891410828,
        -0.9972472786903381
      ],
      "type": "VEC3"
    },
    {
      "bufferView": 1,
      "byteOffset": 171584,
      "componentType": 5126,
      "count": 512,
      "max": [
        12.667335510253906,
        1.9629992246627808
      ],
      "min": [
        -2.734398603439331,
        -2.6147732734680176
      ],
      "type": "VEC2"
    },
    {
      "bufferView": 1,
      "byteOffset": 175680,
      "componentType": 5126,
      "count": 512,
      "max": [
        0.784651517868042,
        0.6322630643844604
      ],
      "min": [
        0.22623905539512634,
        0.46530449390411377
      ],
      "type": "VEC2"
    },
    {
      "bufferView": 0,
      "byteOffset": 488160,
      "componentType": 5125,
      "count": 1512,
      "type": "SCALAR"
    },
    {
      "bufferView": 2,
      "byteOffset": 527040,
      "componentType": 5126,
      "count": 1680,
      "max": [
        36.25908279418945,
        5.8987836837768555,
        0.9494690895080566
      ],
      "min": [
        28.5247802734375,
        3.3334131240844727,
        0.39284747838974
      ],
      "type": "VEC3"
    },
    {
      "bufferView": 2,
      "byteOffset": 547200,
      "componentType": 5126,
      "count": 1680,
      "max": [
        0.9998238682746887,
        0.9974209666252136,
        0.9972649216651917
      ],
      "min": [
        -0.9998204112052917,
        -0.9974208474159241,
        -0.9972687363624573
      ],
      "type": "VEC3"
    },
    {
      "bufferView": 1,
      "byteOffset": 179776,
      "componentType": 5126,
      "count": 1680,
      "max": [
        14.370543479919434,
        2.883676052093506
      ],
      "min": [
        -4.755541801452637,
        -3.321485757827759
      ],
      "type": "VEC2"
    },
    {
      "bufferView": 1,
      "byteOffset": 193216,
      "componentType": 5126,
      "count": 1680,
      "max": [
        0.8565337657928467,
        0.6730912327766418
      ],
      "min": [
        0.16355708241462708,
        0.4367360472679138
      ],
      "type": "VEC2"
    },
    {
      "bufferView": 0,
      "byteOffset": 494208,
      "componentType": 5125,
      "count": 5052,
      "type": "SCALAR"
    },
    {
      "bufferView": 2,
      "byteOffset": 567360,
      "componentType": 5126,
      "count": 18434,
      "max": [
        17.9434814453125,
        4.777104377746582,
        2.6431870460510254
      ],
      "min": [
        8.755701065063477,
        1.6599531173706055,
        -0.1464684009552002
      ],
      "type": "VEC3"
    },
    {
      "bufferView": 2,
      "byteOffset": 788568,
      "componentType": 5126,
      "count": 18434,
      "max": [
        0.9997268915176392,
        0.9999932050704956,
        0.9992184042930603
      ],
      "min": [
        -0.9999712109565735,
        -0.9120846390724182,
        -0.9994574785232544
      ],
      "type": "VEC3"
    },
    {
      "bufferView": 1,
      "byteOffset": 206656,
      "componentType": 5126,
      "count": 18434,
      "max": [
        0.6541978120803833,
        0.7929999828338623
      ],
      "min": [
        0.335999995470047,
        0.22379165887832642
      ],
      "type": "VEC2"
    },
    {
      "bufferView": 0,
      "byteOffset": 514416,
      "componentType": 5125,
      "count": 109440,
      "type": "SCALAR"
    },
    {
      "bufferView": 2,
      "byteOffset": 1009776,
      "componentType": 5126,
      "count": 2477,
      "max": [
        -2.2547836303710938,
        8.696462631225586,
        2.4102401733398438
      ],
      "min": [
        -11.449867248535156,
        -0.5750018358230591,
        -6.784824371337891
      ],
      "type": "VEC3"
    },
    {
      "bufferView": 2,
      "byteOffset": 1039500,
      "componentType": 5126,
      "count": 2477,
      "max": [
        0.999417781829834,
        0.99998539686203,
        0.9994247555732727
      ],
      "min": [
        -0.999417781829834,
        -0.99998539686203,
        -0.9994247555732727
      ],
      "type": "VEC3"
    },
    {
      "bufferView": 1,
      "byteOffset": 354128,
      "componentType": 5126,
      "count": 2477,
      "max": [
        1.000528335571289,
        1.0215327739715576
      ],
      "min": [
        -0.0939076840877533,
        -0.03379124402999878
      ],
      "type": "VEC2"
    },
    {
      "bufferView": 0,
      "byteOffset": 952176,
      "componentType": 5125,
      "count": 13464,
      "type": "SCALAR"
    },
    {
      "bufferView": 2,
      "byteOffset": 1069224,
      "componentType": 5126,
      "count": 2477,
      "max": [
        -13.704943656921387,
        8.619353294372559,
        3.001290798187256
      ],
      "min": [
        -22.902645111083984,
        -0.6489937901496887,
        -6.197576999664307
      ],
      "type": "VEC3"
    },
    {
      "bufferView": 2,
      "byteOffset": 1098948,
      "componentType": 5126,
      "count": 2477,
      "max": [
        0.9997019171714783,
        0.999649167060852,
        0.9998387694358826
      ],
      "min": [
        -0.9997019171714783,
        -0.999649167060852,
        -0.9998387694358826
      ],
      "type": "VEC3"
    },
    {
      "bufferView": 1,
      "byteOffset": 373944,
      "componentType": 5126,
      "count": 2477,
      "max": [
        0.9962183833122253,
        1.1776397228240967
      ],
      "min": [
        -0.03285253047943115,
        -0.14763987064361572
      ],
      "type": "VEC2"
    },
    {
      "bufferView": 0,
      "byteOffset": 1006032,
      "componentType": 5125,
      "count": 13464,
      "type": "SCALAR"
    },
    {
      "bufferView": 2,
      "byteOffset": 1128672,
      "componentType": 5126,
      "count": 2481,
      "max": [
        36.956016540527344,
        8.835062980651855,
        0.48300594091415405
      ],
      "min": [
        27.756526947021484,
        -0.41206085681915283,
        -8.715639114379883
      ],
      "type": "VEC3"
    },
    {
      "bufferView": 2,
      "byteOffset": 1158444,
      "componentType": 5126,
      "count": 2481,
      "max": [
        0.9999041557312012,
        0.9996912479400635,
        0.9997801184654236
      ],
      "min": [
        -0.9999041557312012,
        -0.9996912479400635,
        -0.9997801184654236
      ],
      "type": "VEC3"
    },
    {
      "bufferView": 1,
      "byteOffset": 393760,
      "componentType": 5126,
      "count": 2481,
      "max": [
        1.00003182888031,
        1.0299999713897705
      ],
      "min": [
        -0.0058255791664123535,
        0.0
      ],
      "type": "VEC2"
    },
    {
      "bufferView": 1,
      "byteOffset": 413608,
      "componentType": 5126,
      "count": 2481,
      "max": [
        0.9978111982345581,
        1.0
      ],
      "min": [
        0.0,
        0.0
      ],
      "type": "VEC2"
    },
    {
      "bufferView": 0,
      "byteOffset": 1059888,
      "componentType": 5125,
      "count": 13464,
      "type": "SCALAR"
    },
    {
      "bufferView": 2,
      "byteOffset": 1188216,
      "componentType": 5126,
      "count": 2315,
      "max": [
        4.600668907165527,
        4.600750923156738,
        4.616698265075684
      ],
      "min": [
        -4.600668907165527,
        -4.600750923156738,
        -4.616698265075684
      ],
      "type": "VEC3"
    },
    {
      "bufferView": 2,
      "byteOffset": 1215996,
      "componentType": 5126,
      "count": 2315,
      "max": [
        0.9997800588607788,
        0.9998423457145691,
        0.9999129772186279
      ],
      "min": [
        -0.9997813701629639,
        -0.9998428821563721,
        -0.999911904335022
      ],
      "type": "VEC3"
    },
    {
      "bufferView": 1,
      "byteOffset": 433456,
      "componentType": 5126,
      "count": 2315,
      "max": [
        2.522886276245117,
        0.9891734719276428
      ],
      "min": [
        -1.5657901763916016,
        0.04093974828720093
      ],
      "type": "VEC2"
    },
    {
      "bufferView": 0,
      "byteOffset": 1113744,
      "componentType": 5125,
      "count": 13464,
      "type": "SCALAR"
    },
    {
      "bufferView": 2,
      "byteOffset": 1243776,
      "componentType": 5126,
      "count": 18818,
      "max": [
        3.3088204860687256,
        3.8026928901672363,
        1.5884933471679688
      ],
      "min": [
        -3.3088204860687256,
        -3.8026928901672363,
        -1.5884933471679688
      ],
      "type": "VEC3"
    },
    {
      "bufferView": 2,
      "byteOffset": 1469592,
      "componentType": 5126,
      "count": 18818,
      "max": [
        0.9999446868896484,
        0.999834418296814,
        0.9999158978462219
      ],
      "min": [
        -0.9998478889465332,
        -0.9999447464942932,
        -0.880668044090271
      ],
      "type": "VEC3"
    },
    {
      "bufferView": 1,
      "byteOffset": 451976,
      "componentType": 5126,
      "count": 18818,
      "max": [
        0.6541978120803833,
        0.7929999828338623
      ],
      "min": [
        0.335999995470047,
        0.22379165887832642
      ],
      "type": "VEC2"
    },
    {
      "bufferView": 0,
      "byteOffset": 1167600,
      "componentType": 5125,
      "count": 110580,
      "type": "SCALAR"
    },
    {
      "bufferView": 2,
      "byteOffset": 1695408,
      "componentType": 5126,
      "count": 2192,
      "max": [
        3.3738555908203125,
        2.0431747436523438,
        1.2543835639953613
      ],
      "min": [
        -3.3738555908203125,
        -2.0431747436523438,
        -1.2543835639953613
      ],
      "type": "VEC3"
    },
    {
      "bufferView": 2,
      "byteOffset": 1721712,
      "componentType": 5126,
      "count": 2192,
      "max": [
        0.916131317615509,
        0.8616939783096313,
        0.9999978542327881
      ],
      "min": [
        -0.866508424282074,
        -0.995798647403717,
        -0.9999978542327881
      ],
      "type": "VEC3"
    },
    {
      "bufferView": 1,
      "byteOffset": 602520,
      "componentType": 5126,
      "count": 2192,
      "max": [
        14.370543479919434,
        2.883676052093506
      ],
      "min": [
        -4.755541801452637,
        -3.321485757827759
      ],
      "type": "VEC2"
    },
    {
      "bufferView": 1,
      "byteOffset": 620056,
      "componentType": 5126,
      "count": 2192,
      "max": [
        0.8565337657928467,
        0.6730912327766418
      ],
      "min": [
        0.16355708241462708,
        0.4367360472679138
      ],
      "type": "VEC2"
    },
    {
      "bufferView": 0,
      "byteOffset": 1609920,
      "componentType": 5125,
      "count": 6564,
      "type": "SCALAR"
    },
    {
      "bufferView": 2,
      "byteOffset": 1748016,
      "componentType": 5126,
      "count": 2481,
      "max": [
        4.600149154663086,
        4.600149154663086,
        4.635799407958984
      ],
      "min": [
        -4.600149154663086,
        -4.600149154663086,
        -4.635799407958984
      ],
      "type": "VEC3"
    },
    {
      "bufferView": 2,
      "byteOffset": 1777788,
      "componentType": 5126,
      "count": 2481,
      "max": [
        0.9999964237213135,
        0.9999964237213135,
        1.0
      ],
      "min": [
        -0.9999964237213135,
        -0.9999964237213135,
        -1.0
      ],
      "type": "VEC3"
    },
    {
      "bufferView": 1,
      "byteOffset": 637592,
      "componentType": 5126,
      "count": 2481,
      "max": [
        1.00003182888031,
        1.0299999713897705
      ],
      "min": [
        -0.0058255791664123535,
        0.0
      ],
      "type": "VEC2"
    },
    {
      "bufferView": 1,
      "byteOffset": 657440,
      "componentType": 5126,
      "count": 2481,
      "max": [
        0.9978111982345581,
        1.0
      ],
      "min": [
        0.0,
        0.0
      ],
      "type": "VEC2"
    },
    {
      "bufferView": 0,
      "byteOffset": 1636176,
      "componentType": 5125,
      "count": 13464,
      "type": "SCALAR"
    },
    {
      "bufferView": 2,
      "byteOffset": 1807560,
      "componentType": 5126,
      "count": 2477,
      "max": [
        3.1231002807617188,
        3.1467912197113037,
        3.1230220794677734
      ],
      "min": [
        -3.1231002807617188,
        -3.1467912197113037,
        -3.1230220794677734
      ],
      "type": "VEC3"
    },
    {
      "bufferView": 2,
      "byteOffset": 1837284,
      "componentType": 5126,
      "count": 2477,
      "max": [
        0.999870777130127,
        0.9997066855430603,
        0.9998358488082886
      ],
      "min": [
        -0.999870777130127,
        -0.9997066855430603,
        -0.9998358488082886
      ],
      "type": "VEC3"
    },
    {
      "bufferView": 1,
      "byteOffset": 677288,
      "componentType": 5126,
      "count": 2477,
      "max": [
        0.9932195544242859,
        1.0493102073669434
      ],
      "min": [
        -0.019077062606811523,
        -0.019310295581817627
      ],
      "type": "VEC2"
    },
    {
      "bufferView": 0,
      "byteOffset": 1690032,
      "componentType": 5125,
      "count": 13464,
      "type": "SCALAR"
    },
    {
      "bufferView": 2,
      "byteOffset": 1867008,
      "componentType": 5126,
      "count": 2477,
      "max": [
        4.598852157592773,
        4.634173393249512,
        4.599433898925781
      ],
      "min": [
        -4.598852157592773,
        -4.634173393249512,
        -4.599433898925781
      ],
      "type": "VEC3"
    },
    {
      "bufferView": 2,
      "byteOffset": 1896732,
      "componentType": 5126,
      "count": 2477,
      "max": [
        0.9997019171714783,
        0.999649167060852,
        0.9998387694358826
      ],
      "min": [
        -0.9997019171714783,
        -0.999649167060852,
        -0.9998387694358826
      ],
      "type": "VEC3"
    },
    {
      "bufferView": 1,
      "byteOffset": 697104,
      "componentType": 5126,
      "count": 2477,
      "max": [
        0.9962183237075806,
        1.034995675086975
      ],
      "min": [
        -0.032852500677108765,
        -0.004995822906494141
      ],
      "type": "VEC2"
    },
    {
      "bufferView": 0,
      "byteOffset": 1743888,
      "componentType": 5125,
      "count": 13464,
      "type": "SCALAR"
    },
    {
      "bufferView": 2,
      "byteOffset": 1926456,
      "componentType": 5126,
      "count": 2481,
      "max": [
        4.600150108337402,
        4.600150108337402,
        4.635800361633301
      ],
      "min": [
        -4.600150108337402,
        -4.600150108337402,
        -4.635800361633301
      ],
      "type": "VEC3"
    },
    {
      "bufferView": 2,
      "byteOffset": 1956228,
      "componentType": 5126,
      "count": 2481,
      "max": [
        0.9999964237213135,
        0.9999964237213135,
        1.0
      ],
      "min": [
        -0.9999964237213135,
        -0.9999964237213135,
        -1.0
      ],
      "type": "VEC3"
    },
    {
      "bufferView": 1,
      "byteOffset": 716920,
      "componentType": 5126,
      "count": 2481,
      "max": [
        0.9905210733413696,
        0.9906889796257019
      ],
      "min": [
        0.006163448095321655,
        0.040739208459854126
      ],
      "type": "VEC2"
    },
    {
      "bufferView": 0,
      "byteOffset": 1797744,
      "componentType": 5125,
      "count": 13464,
      "type": "SCALAR"
    },
    {
      "bufferView": 2,
      "byteOffset": 1986000,
      "componentType": 5126,
      "count": 9409,
      "max": [
        1.0246000289916992,
        1.0258499383926392,
        1.552299976348877
      ],
      "min": [
        -1.0246000289916992,
        -1.0258499383926392,
        -1.552299976348877
      ],
      "type": "VEC3"
    },
    {
      "bufferView": 2,
      "byteOffset": 2098908,
      "componentType": 5126,
      "count": 9409,
      "max": [
        0.9998732209205627,
        0.9996146559715271,
        0.9999806880950928
      ],
      "min": [
        -0.9997843503952026,
        -0.9994615316390991,
        -0.9100682139396667
      ],
      "type": "VEC3"
    },
    {
      "bufferView": 1,
      "byteOffset": 736768,
      "componentType": 5126,
      "count": 9409,
      "max": [
        0.6439999938011169,
        0.7929999828338623
      ],
      "min": [
        0.335999995470047,
        0.2669999897480011
      ],
      "type": "VEC2"
    },
    {
      "bufferView": 0,
      "byteOffset": 1851600,
      "componentType": 5125,
      "count": 55290,
      "type": "SCALAR"
    },
    {
      "bufferView": 2,
      "byteOffset": 2211816,
      "componentType": 5126,
      "count": 2481,
      "max": [
        5.752015590667725,
        5.756148338317871,
        5.777895927429199
      ],
      "min": [
        -5.752015590667725,
        -5.756148338317871,
        -5.777895927429199
      ],
      "type": "VEC3"
    },
    {
      "bufferView": 2,
      "byteOffset": 2241588,
      "componentType": 5126,
      "count": 2481,
      "max": [
        0.9999964237213135,
        0.9999964237213135,
        1.0
      ],
      "min": [
        -0.9999964237213135,
        -0.9999964237213135,
        -1.0
      ],
      "type": "VEC3"
    },
    {
      "bufferView": 1,
      "byteOffset": 812040,
      "componentType": 5126,
      "count": 2481,
      "max": [
        0.9979358911514282,
        1.0858914852142334
      ],
      "min": [
        -0.005956470966339111,
        -0.05589151382446289
      ],
      "type": "VEC2"
    },
    {
      "bufferView": 0,
      "byteOffset": 2072760,
      "componentType": 5125,
      "count": 13464,
      "type": "SCALAR"
    },
    {
      "bufferView": 2,
      "byteOffset": 2271360,
      "componentType": 5126,
      "count": 2477,
      "max": [
        4.600150108337402,
        4.600150108337402,
        4.635800361633301
      ],
      "min": [
        -4.600150108337402,
        -4.600150108337402,
        -4.635800361633301
      ],
      "type": "VEC3"
    },
    {
      "bufferView": 2,
      "byteOffset": 2301084,
      "componentType": 5126,
      "count": 2477,
      "max": [
        0.9999964237213135,
        0.9999964237213135,
        1.0
      ],
      "min": [
        -0.9999964237213135,
        -0.9999964237213135,
        -1.0
      ],
      "type": "VEC3"
    },
    {
      "bufferView": 1,
      "byteOffset": 831888,
      "componentType": 5126,
      "count": 2477,
      "max": [
        1.0543452501296997,
        1.1155844926834106
      ],
      "min": [
        -0.0023897597566246986,
        -0.09208276122808456
      ],
      "type": "VEC2"
    },
    {
      "bufferView": 0,
      "byteOffset": 2126616,
      "componentType": 5125,
      "count": 13464,
      "type": "SCALAR"
    },
    {
      "bufferView": 2,
      "byteOffset": 2330808,
      "componentType": 5126,
      "count": 2477,
      "max": [
        4.595951080322266,
        4.630664825439453,
        4.593498229980469
      ],
      "min": [
        -4.595951080322266,
        -4.630664825439453,
        -4.593498229980469
      ],
      "type": "VEC3"
    },
    {
      "bufferView": 2,
      "byteOffset": 2360532,
      "componentType": 5126,
      "count": 2477,
      "max": [
        0.9990901350975037,
        0.9988922476768494,
        0.9985465407371521
      ],
      "min": [
        -0.9990901350975037,
        -0.9988922476768494,
        -0.9985465407371521
      ],
      "type": "VEC3"
    },
    {
      "bufferView": 1,
      "byteOffset": 851704,
      "componentType": 5126,
      "count": 2477,
      "max": [
        1.000528335571289,
        1.0215327739715576
      ],
      "min": [
        -0.0939076840877533,
        -0.03379124402999878
      ],
      "type": "VEC2"
    },
    {
      "bufferView": 0,
      "byteOffset": 2180472,
      "componentType": 5125,
      "count": 13464,
      "type": "SCALAR"
    },
    {
      "bufferView": 3,
      "componentType": 5126,
      "count": 60,
      "max": [
        2.299999952316284
      ],
      "min": [
        0.03333333507180214
      ],
      "type": "SCALAR"
    },
    {
      "bufferView": 4,
      "componentType": 5126,
      "count": 60,
      "max": [
        52.361106872558594,
        -22.494144439697266,
        12.204383850097656
      ],
      "min": [
        52.16156768798828,
        -23.472875595092773,
        -0.16407467424869537
      ],
      "type": "VEC3"
    },
    {
      "bufferView": 3,
      "byteOffset": 240,
      "componentType": 5126,
      "count": 38,
      "max": [
        2.299999952316284
      ],
      "min": [
        0.03333333507180214
      ],
      "type": "SCALAR"
    },
    {
      "bufferView": 4,
      "byteOffset": 720,
      "componentType": 5126,
      "count": 38,
      "max": [
        0.8571557998657227,
        0.8571557998657227,
        1.1229591369628906
      ],
      "min": [
        0.8571200370788574,
        0.8571200370788574,
        0.6116840243339539
      ],
      "type": "VEC3"
    },
    {
      "bufferView": 3,
      "byteOffset": 392,
      "componentType": 5126,
      "count": 36,
      "max": [
        2.299999952316284
      ],
      "min": [
        0.03333333507180214
      ],
      "type": "SCALAR"
    },
    {
      "bufferView": 5,
      "componentType": 5126,
      "count": 36,
      "max": [
        0.029580209404230118,
        0.13881607353687286,
        0.24791894853115082,
        0.9583273530006409
      ],
      "min": [
        0.029580209404230118,
        0.13881607353687286,
        0.24791894853115082,
        0.9583273530006409
      ],
      "type": "VEC4"
    },
    {
      "bufferView": 3,
      "byteOffset": 536,
      "componentType": 5126,
      "count": 42,
      "max": [
        2.299999952316284
      ],
      "min": [
        0.03333333507180214
      ],
      "type": "SCALAR"
    },
    {
      "bufferView": 5,
      "byteOffset": 576,
      "componentType": 5126,
      "count": 42,
      "max": [
        0.21292538940906525,
        0.2127857804298401,
        0.9769416451454163,
        0.9766321182250977
      ],
      "min": [
        -0.0698741227388382,
        -0.19101297855377197,
        -0.8188502788543701,
        -0.42690861225128174
      ],
      "type": "VEC4"
    },
    {
      "bufferView": 3,
      "byteOffset": 704,
      "componentType": 5126,
      "count": 63,
      "max": [
        2.0999999046325684
      ],
      "min": [
        0.03333333507180214
      ],
      "type": "SCALAR"
    },
    {
      "bufferView": 4,
      "byteOffset": 1176,
      "componentType": 5126,
      "count": 63,
      "max": [
        -99.87615203857422,
        18.158544540405273,
        13.201859474182129
      ],
      "min": [
        -99.87615203857422,
        2.76507568359375,
        13.201859474182129
      ],
      "type": "VEC3"
    },
    {
      "bufferView": 3,
      "byteOffset": 956,
      "componentType": 5126,
      "count": 49,
      "max": [
        2.1000099182128906
      ],
      "min": [
        0.03333333507180214
      ],
      "type": "SCALAR"
    },
    {
      "bufferView": 4,
      "byteOffset": 1932,
      "componentType": 5126,
      "count": 49,
      "max": [
        1.1042252779006958,
        1.1042252779006958,
        1.1042252779006958
      ],
      "min": [
        1.000000013351432e-10,
        1.000000013351432e-10,
        1.000000013351432e-10
      ],
      "type": "VEC3"
    },
    {
      "bufferView": 3,
      "byteOffset": 1152,
      "componentType": 5126,
      "count": 32,
      "max": [
        2.6666667461395264
      ],
      "min": [
        0.03333333507180214
      ],
      "type": "SCALAR"
    },
    {
      "bufferView": 4,
      "byteOffset": 2520,
      "componentType": 5126,
      "count": 32,
      "max": [
        0.6707234382629395,
        0.6707234382629395,
        0.6707234382629395
      ],
      "min": [
        0.6707234382629395,
        0.5976946949958801,
        0.6707234382629395
      ],
      "type": "VEC3"
    },
    {
      "bufferView": 3,
      "byteOffset": 1280,
      "componentType": 5126,
      "count": 80,
      "max": [
        2.6666667461395264
      ],
      "min": [
        0.03333333507180214
      ],
      "type": "SCALAR"
    },
    {
      "bufferView": 5,
      "byteOffset": 1248,
      "componentType": 5126,
      "count": 80,
      "max": [
        0.04717950522899628,
        0.06838476657867432,
        0.030520668253302574,
        0.9992109537124634
      ],
      "min": [
        0.01186301652342081,
        -0.2398565113544464,
        0.00488433800637722,
        0.9696085453033447
      ],
      "type": "VEC4"
    },
    {
      "bufferView": 3,
      "byteOffset": 1600,
      "componentType": 5126,
      "count": 55,
      "max": [
        2.5
      ],
      "min": [
        0.03333333507180214
      ],
      "type": "SCALAR"
    },
    {
      "bufferView": 4,
      "byteOffset": 2904,
      "componentType": 5126,
      "count": 55,
      "max": [
        -51.1802864074707,
        6.179874420166016,
        13.308615684509277
      ],
      "min": [
        -51.1802864074707,
        3.7455265522003174,
        13.308615684509277
      ],
      "type": "VEC3"
    },
    {
      "bufferView": 3,
      "byteOffset": 1820,
      "componentType": 5126,
      "count": 75,
      "max": [
        2.5
      ],
      "min": [
        0.03333333507180214
      ],
      "type": "SCALAR"
    },
    {
      "bufferView": 5,
      "byteOffset": 2528,
      "componentType": 5126,
      "count": 75,
      "max": [
        -0.6623764634132385,
        -0.1746634691953659,
        -0.18033576011657715,
        0.7058534622192383
      ],
      "min": [
        -0.7324801087379456,
        -0.31739357113838196,
        -0.3290615975856781,
        0.5044330358505249
      ],
      "type": "VEC4"
    },
    {
      "bufferView": 3,
      "byteOffset": 2120,
      "componentType": 5126,
      "count": 62,
      "max": [
        2.4000000953674316
      ],
      "min": [
        0.03333333507180214
      ],
      "type": "SCALAR"
    },
    {
      "bufferView": 5,
      "byteOffset": 3728,
      "componentType": 5126,
      "count": 62,
      "max": [
        -0.5760553479194641,
        -0.15926915407180786,
        -0.16581299901008606,
        0.6860061287879944
      ],
      "min": [
        -0.7083413600921631,
        -0.41238561272621155,
        -0.3761764466762543,
        0.575653612613678
      ],
      "type": "VEC4"
    },
    {
      "bufferView": 3,
      "byteOffset": 2368,
      "componentType": 5126,
      "count": 53,
      "max": [
        2.2333333492279053
      ],
      "min": [
        0.03333333507180214
      ],
      "type": "SCALAR"
    },
    {
      "bufferView": 4,
      "byteOffset": 3564,
      "componentType": 5126,
      "count": 53,
      "max": [
        -80.35193634033203,
        6.056121349334717,
        17.033323287963867
      ],
      "min": [
        -80.35193634033203,
        6.056121349334717,
        14.6245756149292
      ],
      "type": "VEC3"
    },
    {
      "bufferView": 3,
      "byteOffset": 2580,
      "componentType": 5126,
      "count": 63,
      "max": [
        2.2333333492279053
      ],
      "min": [
        0.03333333507180214
      ],
      "type": "SCALAR"
    },
    {
      "bufferView": 4,
      "byteOffset": 4200,
      "componentType": 5126,
      "count": 63,
      "max": [
        0.9118696451187134,
        0.9118696451187134,
        0.9118696451187134
      ],
      "min": [
        0.8802909255027771,
        0.8802909255027771,
        0.8802909255027771
      ],
      "type": "VEC3"
    },
    {
      "bufferView": 3,
      "byteOffset": 2832,
      "componentType": 5126,
      "count": 67,
      "max": [
        2.2333333492279053
      ],
      "min": [
        0.03333333507180214
      ],
      "type": "SCALAR"
    },
    {
      "bufferView": 5,
      "byteOffset": 4720,
      "componentType": 5126,
      "count": 67,
      "max": [
        -0.6601000428199768,
        -0.16826488077640533,
        -0.13895748555660248,
        0.7125314474105835
      ],
      "min": [
        -0.6767733097076416,
        -0.24584877490997314,
        -0.2445361167192459,
        0.6663545966148376
      ],
      "type": "VEC4"
    },
    {
      "bufferView": 3,
      "byteOffset": 3100,
      "componentType": 5126,
      "count": 59,
      "max": [
        1.9666666984558105
      ],
      "min": [
        0.03333333507180214
      ],
      "type": "SCALAR"
    },
    {
      "bufferView": 5,
      "byteOffset": 5792,
      "componentType": 5126,
      "count": 59,
      "max": [
        -0.019222231581807137,
        -0.024024713784456253,
        0.008665495552122593,
        0.9994890093803406
      ],
      "min": [
        -0.2604998052120209,
        -0.025407586246728897,
        0.0025946651585400105,
        0.9651360511779785
      ],
      "type": "VEC4"
    }
  ],
  "animations": [
    {
      "channels": [
        {
          "sampler": 0,
          "target": {
            "node": 32,
            "path": "translation"
          }
        },
        {
          "sampler": 1,
          "target": {
            "node": 32,
            "path": "scale"
          }
        },
        {
          "sampler": 2,
          "target": {
            "node": 32,
            "path": "rotation"
          }
        },
        {
          "sampler": 3,
          "target": {
            "node": 38,
            "path": "rotation"
          }
        },
        {
          "sampler": 4,
          "target": {
            "node": 43,
            "path": "translation"
          }
        },
        {
          "sampler": 5,
          "target": {
            "node": 43,
            "path": "scale"
          }
        },
        {
          "sampler": 6,
          "target": {
            "node": 45,
            "path": "scale"
          }
        },
        {
          "sampler": 7,
          "target": {
            "node": 45,
            "path": "rotation"
          }
        },
        {
          "sampler": 8,
          "target": {
            "node": 47,
            "path": "translation"
          }
        },
        {
          "sampler": 9,
          "target": {
            "node": 47,
            "path": "rotation"
          }
        },
        {
          "sampler": 10,
          "target": {
            "node": 49,
            "path": "rotation"
          }
        },
        {
          "sampler": 11,
          "target": {
            "node": 54,
            "path": "translation"
          }
        },
        {
          "sampler": 12,
          "target": {
            "node": 54,
            "path": "scale"
          }
        },
        {
          "sampler": 13,
          "target": {
            "node": 54,
            "path": "rotation"
          }
        },
        {
          "sampler": 14,
          "target": {
            "node": 56,
            "path": "rotation"
          }
        }
      ],
      "name": "Take 001",
      "samplers": [
        {
          "input": 97,
          "interpolation": "LINEAR",
          "output": 98
        },
        {
          "input": 99,
          "interpolation": "LINEAR",
          "output": 100
        },
        {
          "input": 101,
          "interpolation": "LINEAR",
          "output": 102
        },
        {
          "input": 103,
          "interpolation": "LINEAR",
          "output": 104
        },
        {
          "input": 105,
          "interpolation": "LINEAR",
          "output": 106
        },
        {
          "input": 107,
          "interpolation": "LINEAR",
          "output": 108
        },
        {
          "input": 109,
          "interpolation": "LINEAR",
          "output": 110
        },
        {
          "input": 111,
          "interpolation": "LINEAR",
          "output": 112
        },
        {
          "input": 113,
          "interpolation": "LINEAR",
          "output": 114
        },
        {
          "input": 115,
          "interpolation": "LINEAR",
          "output": 116
        },
        {
          "input": 117,
          "interpolation": "LINEAR",
          "output": 118
        },
        {
          "input": 119,
          "interpolation": "LINEAR",
          "output": 120
        },
        {
          "input": 121,
          "interpolation": "LINEAR",
          "output": 122
        },
        {
          "input": 123,
          "interpolation": "LINEAR",
          "output": 124
        },
        {
          "input": 125,
          "interpolation": "LINEAR",
          "output": 126
        }
      ]
    }
  ],
  "asset": {
    "extras": {
      "author": "Muhammed Reca Mermutluoğlu (https://sketchfab.com/3drec)",
      "license": "CC-BY-4.0 (http://creativecommons.org/licenses/by/4.0/)",
      "source": "https://sketchfab.com/3d-models/emojis-3d-animated-and-stable-free-5e88760d14b8474cacb867b197456334",
      "title": "Emojis 3D Animated And Stable FREE"
    },
    "generator": "Sketchfab-12.67.0",
    "version": "2.0"
  },
  "bufferViews": [
    {
      "buffer": 0,
      "byteLength": 2234328,
      "name": "floatBufferViews",
      "target": 34963
    },
    {
      "buffer": 0,
      "byteLength": 871520,
      "byteOffset": 2234328,
      "byteStride": 8,
      "name": "floatBufferViews",
      "target": 34962
    },
    {
      "buffer": 0,
      "byteLength": 2390256,
      "byteOffset": 3105848,
      "byteStride": 12,
      "name": "floatBufferViews",
      "target": 34962
    },
    {
      "buffer": 0,
      "byteLength": 3336,
      "byteOffset": 5496104,
      "name": "floatBufferViews"
    },
    {
      "buffer": 0,
      "byteLength": 4956,
      "byteOffset": 5499440,
      "byteStride": 12,
      "name": "floatBufferViews"
    },
    {
      "buffer": 0,
      "byteLength": 6736,
      "byteOffset": 5504396,
      "byteStride": 16,
      "name": "floatBufferViews"
    }
  ],
  "buffers": [
    {
      "byteLength": 5511132,
      "uri": "scene.bin"
    }
  ],
  "extensionsUsed": [
    "KHR_materials_unlit"
  ],
  "images": [
    {
      "uri": "textures/shiny_smile_emoji_baseColor.jpeg"
    },
    {
      "uri": "textures/angry_emoji_baseColor.jpeg"
    },
    {
      "uri": "textures/eye_cry_baseColor.jpeg"
    },
    {
      "uri": "textures/tirppiy_emoji_baseColor.jpeg"
    },
    {
      "uri": "textures/lol_emoji_baseColor.jpeg"
    },
    {
      "uri": "textures/love_emoji_baseColor.jpeg"
    },
    {
      "uri": "textures/shinny_emoji_baseColor.jpeg"
    },
    {
      "uri": "textures/Glass_emoji1_baseColor.jpeg"
    }
  ],
  "materials": [
    {
      "doubleSided": true,
      "extensions": {
        "KHR_materials_unlit": {}
      },
      "name": "shiny_smile_emoji",
      "pbrMetallicRoughness": {
        "baseColorTexture": {
          "index": 0
        },
        "metallicFactor": 0.0
      }
    },
    {
      "doubleSided": true,
      "extensions": {
        "KHR_materials_unlit": {}
      },
      "name": "angry_emoji",
      "pbrMetallicRoughness": {
        "baseColorTexture": {
          "index": 1
        },
        "metallicFactor": 0.0
      }
    },
    {
      "doubleSided": true,
      "extensions": {
        "KHR_materials_unlit": {}
      },
      "name": "eye_cry",
      "pbrMetallicRoughness": {
        "baseColorTexture": {
          "index": 2
        },
        "metallicFactor": 0.0
      }
    },
    {
      "doubleSided": true,
      "extensions": {
        "KHR_materials_unlit": {}
      },
      "name": "tirppiy_emoji",
      "pbrMetallicRoughness": {
        "baseColorTexture": {
          "index": 3
        },
        "metallicFactor": 0.0
      }
    },
    {
      "doubleSided": true,
      "extensions": {
        "KHR_materials_unlit": {}
      },
      "name": "lol_emoji",
      "pbrMetallicRoughness": {
        "baseColorTexture": {
          "index": 4
        },
        "metallicFactor": 0.0
      }
    },
    {
      "doubleSided": true,
      "extensions": {
        "KHR_materials_unlit": {}
      },
      "name": "love_emoji",
      "pbrMetallicRoughness": {
        "baseColorTexture": {
          "index": 5
        },
        "metallicFactor": 0.0
      }
    },
    {
      "doubleSided": true,
      "extensions": {
        "KHR_materials_unlit": {}
      },
      "name": "glass_mat",
      "pbrMetallicRoughness": {
        "baseColorFactor": [
          0.0,
          0.0,
          0.0,
          1.0
        ],
        "metallicFactor": 0.0
      }
    },
    {
      "doubleSided": true,
      "extensions": {
        "KHR_materials_unlit": {}
      },
      "name": "Glass_shader_out",
      "pbrMetallicRoughness": {
        "baseColorFactor": [
          0.007,
          0.007,
          0.007,
          1.0
        ],
        "metallicFactor": 0.0
      }
    },
    {
      "doubleSided": true,
      "extensions": {
        "KHR_materials_unlit": {}
      },
      "name": "smile_emoji",
      "pbrMetallicRoughness": {
        "baseColorTexture": {
          "index": 0
        },
        "metallicFactor": 0.0
      }
    },
    {
      "doubleSided": true,
      "extensions": {
        "KHR_materials_unlit": {}
      },
      "name": "shinny_emoji",
      "pbrMetallicRoughness": {
        "baseColorTexture": {
          "index": 6
        },
        "metallicFactor": 0.0
      }
    },
    {
      "doubleSided": true,
      "extensions": {
        "KHR_materials_unlit": {}
      },
      "name": "Glass_emoji1",
      "pbrMetallicRoughness": {
        "baseColorTexture": {
          "index": 7
        },
        "metallicFactor": 0.0
      }
    },
    {
      "doubleSided": true,
      "extensions": {
        "KHR_materials_unlit": {}
      },
      "name": "smile_face1",
      "pbrMetallicRoughness": {
        "baseColorTexture": {
          "index": 0
        },
        "metallicFactor": 0.0
      }
    }
  ],
  "meshes": [
    {
      "name": "Object003_shiny_smile_emoji_0",
      "primitives": [
        {
          "attributes": {
            "NORMAL": 1,
            "POSITION": 0,
            "TEXCOORD_0": 2
          },
          "indices": 3,
          "material": 0,
          "mode": 4
        }
      ]
    },
    {
      "name": "Sphere016_angry_emoji_0",
      "primitives": [
        {
          "attributes": {
            "NORMAL": 5,
            "POSITION": 4,
            "TEXCOORD_0": 6
          },
          "indices": 7,
          "material": 1,
          "mode": 4
        }
      ]
    },
    {
      "name": "Object004_eye_cry_0",
      "primitives": [
        {
          "attributes": {
            "NORMAL": 9,
            "POSITION": 8,
            "TEXCOORD_0": 10
          },
          "indices": 11,
          "material": 2,
          "mode": 4
        }
      ]
    },
    {
      "name": "Sphere012_tirppiy_emoji_0",
      "primitives": [
        {
          "attributes": {
            "NORMAL": 13,
            "POSITION": 12,
            "TEXCOORD_0": 14
          },
          "indices": 15,
          "material": 3,
          "mode": 4
        }
      ]
    },
    {
      "name": "Object0012_lol_emoji_0",
      "primitives": [
        {
          "attributes": {
            "NORMAL": 17,
            "POSITION": 16,
            "TEXCOORD_0": 18
          },
          "indices": 19,
          "material": 4,
          "mode": 4
        }
      ]
    },
    {
      "name": "Sphere014_love_emoji_0",
      "primitives": [
        {
          "attributes": {
            "NORMAL": 21,
            "POSITION": 20,
            "TEXCOORD_0": 22
          },
          "indices": 23,
          "material": 5,
          "mode": 4
        }
      ]
    },
    {
      "name": "glasss2_glass_mat_0",
      "primitives": [
        {
          "attributes": {
            "NORMAL": 25,
            "POSITION": 24,
            "TEXCOORD_0": 26,
            "TEXCOORD_1": 27
          },
          "indices": 28,
          "material": 6,
          "mode": 4
        }
      ]
    },
    {
      "name": "glasss2_Glass_shader_out_0",
      "primitives": [
        {
          "attributes": {
            "NORMAL": 30,
            "POSITION": 29,
            "TEXCOORD_0": 31,
            "TEXCOORD_1": 32
          },
          "indices": 33,
          "material": 7,
          "mode": 4
        }
      ]
    },
    {
      "name": "Object002_eye_cry_0",
      "primitives": [
        {
          "attributes": {
            "NORMAL": 35,
            "POSITION": 34,
            "TEXCOORD_0": 36
          },
          "indices": 37,
          "material": 2,
          "mode": 4
        }
      ]
    },
    {
      "name": "Sphere011_smile_emoji_0",
      "primitives": [
        {
          "attributes": {
            "NORMAL": 39,
            "POSITION": 38,
            "TEXCOORD_0": 40
          },
          "indices": 41,
          "material": 8,
          "mode": 4
        }
      ]
    },
    {
      "name": "Sphere007_shinny_emoji_0",
      "primitives": [
        {
          "attributes": {
            "NORMAL": 43,
            "POSITION": 42,
            "TEXCOORD_0": 44
          },
          "indices": 45,
          "material": 9,
          "mode": 4
        }
      ]
    },
    {
      "name": "polySurface2_Glass_emoji1_0",
      "primitives": [
        {
          "attributes": {
            "NORMAL": 47,
            "POSITION": 46,
            "TEXCOORD_0": 48,
            "TEXCOORD_1": 49
          },
          "indices": 50,
          "material": 10,
          "mode": 4
        }
      ]
    },
    {
      "name": "Object004_lol_emoji_0",
      "primitives": [
        {
          "attributes": {
            "NORMAL": 52,
            "POSITION": 51,
            "TEXCOORD_0": 53
          },
          "indices": 54,
          "material": 4,
          "mode": 4
        }
      ]
    },
    {
      "name": "Object002_eye_cry_0",
      "primitives": [
        {
          "attributes": {
            "NORMAL": 56,
            "POSITION": 55,
            "TEXCOORD_0": 57
          },
          "indices": 58,
          "material": 2,
          "mode": 4
        }
      ]
    },
    {
      "name": "glasss2_glass_mat_0",
      "primitives": [
        {
          "attributes": {
            "NORMAL": 60,
            "POSITION": 59,
            "TEXCOORD_0": 61,
            "TEXCOORD_1": 62
          },
          "indices": 63,
          "material": 6,
          "mode": 4
        }
      ]
    },
    {
      "name": "polySurface1_Glass_emoji1_0",
      "primitives": [
        {
          "attributes": {
            "NORMAL": 65,
            "POSITION": 64,
            "TEXCOORD_0": 66,
            "TEXCOORD_1": 67
          },
          "indices": 68,
          "material": 10,
          "mode": 4
        }
      ]
    },
    {
      "name": "Sphere030_love_emoji_0",
      "primitives": [
        {
          "attributes": {
            "NORMAL": 70,
            "POSITION": 69,
            "TEXCOORD_0": 71
          },
          "indices": 72,
          "material": 5,
          "mode": 4
        }
      ]
    },
    {
      "name": "Sphere0013_shinny_emoji_0",
      "primitives": [
        {
          "attributes": {
            "NORMAL": 74,
            "POSITION": 73,
            "TEXCOORD_0": 75
          },
          "indices": 76,
          "material": 9,
          "mode": 4
        }
      ]
    },
    {
      "name": "Sphere036_tirppiy_emoji_0",
      "primitives": [
        {
          "attributes": {
            "NORMAL": 78,
            "POSITION": 77,
            "TEXCOORD_0": 79
          },
          "indices": 80,
          "material": 3,
          "mode": 4
        }
      ]
    },
    {
      "name": "Object004_eye_cry_0",
      "primitives": [
        {
          "attributes": {
            "NORMAL": 82,
            "POSITION": 81,
            "TEXCOORD_0": 83
          },
          "indices": 84,
          "material": 2,
          "mode": 4
        }
      ]
    },
    {
      "name": "Object003_shiny_smile_emoji_0",
      "primitives": [
        {
          "attributes": {
            "NORMAL": 86,
            "POSITION": 85,
            "TEXCOORD_0": 87
          },
          "indices": 88,
          "material": 0,
          "mode": 4
        }
      ]
    },
    {
      "name": "Sphere042_angry_emoji_0",
      "primitives": [
        {
          "attributes": {
            "NORMAL": 90,
            "POSITION": 89,
            "TEXCOORD_0": 91
          },
          "indices": 92,
          "material": 1,
          "mode": 4
        }
      ]
    },
    {
      "name": "Sphere019_smile_face1_0",
      "primitives": [
        {
          "attributes": {
            "NORMAL": 94,
            "POSITION": 93,
            "TEXCOORD_0": 95
          },
          "indices": 96,
          "material": 11,
          "mode": 4
        }
      ]
    }
  ],
  "nodes": [
    {
      "children": [
        1
      ],
      "matrix": [
        1.0,
        0.0,
        0.0,
        0.0,
        0.0,
        2.220446049250313e-16,
        -1.0,
        0.0,
        0.0,
        1.0,
        2.220446049250313e-16,
        0.0,
        0.0,
        0.0,
        0.0,
        1.0
      ],
      "name": "Sketchfab_model"
    },
    {
      "children": [
        2
      ],
      "matrix": [
        0.009999999776482582,
        0.0,
        0.0,
        0.0,
        0.0,
        0.0,
        0.009999999776482582,
        0.0,
        0.0,
        -0.009999999776482582,
        0.0,
        0.0,
        0.0,
        0.0,
        0.0,
        1.0
      ],
      "name": "f5b022251f77495a98e6818f2c024b47.fbx"
    },
    {
      "children": [
        3
      ],
      "name": "Object_2"
    },
    {
      "children": [
        4,
        30
      ],
      "name": "RootNode"
    },
    {
      "children": [
        5,
        28
      ],
      "name": "emojies_stable"
    },
    {
      "children": [
        6,
        8,
        10,
        12,
        14,
        16,
        18,
        21,
        23,
        25,
        27
      ],
      "name": "group25"
    },
    {
      "children": [
        7
      ],
      "name": "Object003"
    },
    {
      "mesh": 0,
      "name": "Object003_shiny_smile_emoji_0"
    },
    {
      "children": [
        9
      ],
      "name": "Sphere016"
    },
    {
      "mesh": 1,
      "name": "Sphere016_angry_emoji_0"
    },
    {
      "children": [
        11
      ],
      "name": "Object004",
      "translation": [
        26.99155044555664,
        0.0,
        0.12318684905767441
      ]
    },
    {
      "mesh": 2,
      "name": "Object004_eye_cry_0"
    },
    {
      "children": [
        13
      ],
      "name": "Sphere012"
    },
    {
      "mesh": 3,
      "name": "Sphere012_tirppiy_emoji_0"
    },
    {
      "children": [
        15
      ],
      "name": "Object0012"
    },
    {
      "mesh": 4,
      "name": "Object0012_lol_emoji_0"
    },
    {
      "children": [
        17
      ],
      "name": "Sphere014"
    },
    {
      "mesh": 5,
      "name": "Sphere014_love_emoji_0"
    },
    {
      "children": [
        19,
        20
      ],
      "name": "glasss2"
    },
    {
      "mesh": 6,
      "name": "glasss2_glass_mat_0"
    },
    {
      "mesh": 7,
      "name": "glasss2_Glass_shader_out_0"
    },
    {
      "children": [
        22
      ],
      "name": "Object002"
    },
    {
      "mesh": 8,
      "name": "Object002_eye_cry_0"
    },
    {
      "children": [
        24
      ],
      "name": "Sphere011"
    },
    {
      "mesh": 9,
      "name": "Sphere011_smile_emoji_0"
    },
    {
      "children": [
        26
      ],
      "name": "Sphere007"
    },
    {
      "mesh": 10,
      "name": "Sphere007_shinny_emoji_0"
    },
    {
      "name": "Group001"
    },
    {
      "children": [
        29
      ],
      "name": "polySurface2"
    },
    {
      "mesh": 11,
      "name": "polySurface2_Glass_emoji1_0"
    },
    {
      "children": [
        31,
        37,
        43,
        45,
        47,
        49,
        54,
        56
      ],
      "name": "emojies_anm",
      "translation": [
        0.0,
        0.0,
        -13.269248008728027
      ]
    },
    {
      "children": [
        32
      ],
      "name": "Group002",
      "rotation": [
        -0.5042572021484375,
        -0.4613882601261139,
        -0.45257294178009033,
        0.5727331638336182
      ],
      "translation": [
        -75.51052856445313,
        4.863516330718994,
        -43.93498611450195
      ]
    },
    {
      "children": [
        33,
        35
      ],
      "name": "group4",
      "rotation": [
        0.02958020754158497,
        0.13881607353687286,
        0.24791894853115082,
        0.9583273530006409
      ],
      "scale": [
        0.8571557998657227,
        0.8571557998657227,
        0.8571557998657227
      ],
      "translation": [
        52.361106872558594,
        -22.494144439697266,
        12.204384803771973
      ]
    },
    {
      "children": [
        34
      ],
      "name": "Object004",
      "rotation": [
        1.3877787807814457e-17,
        -1.3877787807814457e-17,
        -8.326672684688674e-17,
        1.0
      ],
      "translation": [
        -1.265713095664978,
        1.185045599937439,
        4.299258708953857
      ]
    },
    {
      "mesh": 12,
      "name": "Object004_lol_emoji_0"
    },
    {
      "children": [
        36
      ],
      "name": "Object002",
      "rotation": [
        1.3877787807814457e-17,
        -1.3877787807814457e-17,
        -8.326672684688674e-17,
        1.0
      ],
      "translation": [
        1.806012749671936,
        -1.449454665184021,
        4.296131134033203
      ]
    },
    {
      "mesh": 13,
      "name": "Object002_eye_cry_0"
    },
    {
      "children": [
        38
      ],
      "name": "Glass_emo",
      "rotation": [
        0.6551520228385925,
        0.4518645405769348,
        0.4563170075416565,
        -0.39795610308647156
      ],
      "translation": [
        -66.94869995117188,
        5.684314727783203,
        -48.296573638916016
      ]
    },
    {
      "children": [
        39,
        41
      ],
      "name": "group10",
      "rotation": [
        0.20024605095386505,
        0.07244699448347092,
        0.4156828820705414,
        0.8842290043830872
      ],
      "scale": [
        0.8284339904785156,
        0.8284339904785156,
        0.8284339904785156
      ],
      "translation": [
        57.93733596801758,
        -7.947861671447754,
        -19.072202682495117
      ]
    },
    {
      "children": [
        40
      ],
      "name": "glasss2",
      "rotation": [
        -6.938893903907228e-18,
        -6.938893903907228e-18,
        -5.551115123125783e-17,
        1.0
      ],
      "translation": [
        1.8633880615234375,
        -3.264383316040039,
        0.7364696860313416
      ]
    },
    {
      "mesh": 14,
      "name": "glasss2_glass_mat_0"
    },
    {
      "children": [
        42
      ],
      "name": "polySurface1",
      "rotation": [
        -6.938893903907228e-18,
        -6.938893903907228e-18,
        -5.551115123125783e-17,
        1.0
      ],
      "translation": [
        -0.6370944976806641,
        0.7074089050292969,
        -1.9073486328125e-06
      ]
    },
    {
      "mesh": 15,
      "name": "polySurface1_Glass_emoji1_0"
    },
    {
      "children": [
        44
      ],
      "name": "Sphere030",
      "scale": [
        0.9106091260910034,
        0.9106091260910034,
        0.9106091260910034
      ],
      "translation": [
        -99.87615203857422,
        2.76507568359375,
        13.201858520507813
      ]
    },
    {
      "mesh": 16,
      "name": "Sphere030_love_emoji_0"
    },
    {
      "children": [
        46
      ],
      "name": "Sphere0013",
      "rotation": [
        0.01186301652342081,
        -0.12193117290735245,
        0.00488433800637722,
        0.9924556612968445
      ],
      "scale": [
        0.6707234382629395,
        0.6707234382629395,
        0.6707234382629395
      ],
      "translation": [
        -41.4660530090332,
        2.7089571952819824,
        13.996291160583496
      ]
    },
    {
      "mesh": 17,
      "name": "Sphere0013_shinny_emoji_0"
    },
    {
      "children": [
        48
      ],
      "name": "Sphere036",
      "rotation": [
        -0.6623764634132385,
        -0.1746634691953659,
        -0.18033576011657715,
        0.7058534622192383
      ],
      "scale": [
        0.8295161724090576,
        0.8295161724090576,
        0.8295161724090576
      ],
      "translation": [
        -51.1802864074707,
        3.7455265522003174,
        13.308615684509277
      ]
    },
    {
      "mesh": 18,
      "name": "Sphere036_tirppiy_emoji_0"
    },
    {
      "children": [
        50,
        52
      ],
      "name": "Group008",
      "rotation": [
        -0.6505582332611084,
        -0.30394551157951355,
        -0.25721147656440735,
        0.6467096209526062
      ],
      "scale": [
        0.8311004638671875,
        0.8311004638671875,
        0.8311004638671875
      ],
      "translation": [
        -61.142127990722656,
        4.123791694641113,
        13.274015426635742
      ]
    },
    {
      "children": [
        51
      ],
      "name": "Object004",
      "rotation": [
        0.7487607002258301,
        0.6453776955604553,
        -0.1511390209197998,
        -0.0014176435070112348
      ],
      "scale": [
        -0.7990092039108276,
        -0.799009382724762,
        -0.799009382724762
      ],
      "translation": [
        4.749584197998047,
        -0.008870267309248447,
        2.269869804382324
      ]
    },
    {
      "mesh": 19,
      "name": "Object004_eye_cry_0"
    },
    {
      "children": [
        53
      ],
      "name": "Object003",
      "rotation": [
        0.7487607002258301,
        0.6453776955604553,
        -0.1511390656232834,
        -0.001417625928297639
      ],
      "scale": [
        -0.7990092039108276,
        -0.7990093231201172,
        -0.799009382724762
      ]
    },
    {
      "mesh": 20,
      "name": "Object003_shiny_smile_emoji_0"
    },
    {
      "children": [
        55
      ],
      "name": "Sphere042",
      "rotation": [
        -0.6660960912704468,
        -0.17118896543979645,
        -0.1389574557542801,
        0.7125315070152283
      ],
      "scale": [
        0.8802909255027771,
        0.8802909255027771,
        0.8802909255027771
      ],
      "translation": [
        -80.35194396972656,
        6.056121349334717,
        14.6245756149292
      ]
    },
    {
      "mesh": 21,
      "name": "Sphere042_angry_emoji_0"
    },
    {
      "children": [
        57
      ],
      "name": "Sphere019",
      "rotation": [
        -0.019222229719161987,
        -0.024024713784456253,
        0.008665495552122593,
        0.9994890093803406
      ],
      "scale": [
        0.6379678249359131,
        0.6379678249359131,
        0.6379678249359131
      ],
      "translation": [
        -109.944091796875,
        3.060708522796631,
        14.15176773071289
      ]
    },
    {
      "mesh": 22,
      "name": "Sphere019_smile_face1_0"
    }
  ],
  "samplers": [
    {
      "magFilter": 9729,
      "minFilter": 9987,
      "wrapS": 10497,
      "wrapT": 10497
    }
  ],
  "scene": 0,
  "scenes": [
    {
      "name": "Sketchfab_Scene",
      "nodes": [
        0
      ]
    }
  ],
  "textures": [
    {
      "sampler": 0,
      "source": 0
    },
    {
      "sampler": 0,
      "source": 1
    },
    {
      "sampler": 0,
      "source": 2
    },
    {
      "sampler": 0,
      "source": 3
    },
    {
      "sampler": 0,
      "source": 4
    },
    {
      "sampler": 0,
      "source": 5
    },
    {
      "sampler": 0,
      "source": 6
    },
    {
      "sampler": 0,
      "source": 7
    }
  ]
}
