{
  "accessors": [
    {
      "bufferView": 2,
      "componentType": 5126,
      "count": 63463,
      "max": [
        4536.8359375,
        -2.56787109375,
        4862.416015625
      ],
      "min": [
        -4536.83544921875,
        -9195.8291015625,
        -4882.755859375
      ],
      "type": "VEC3"
    },
    {
      "bufferView": 2,
      "byteOffset": 761556,
      "componentType": 5126,
      "count": 63463,
      "max": [
        1.0,
        1.0,
        1.0
      ],
      "min": [
        -1.0,
        -1.0,
        -1.0
      ],
      "type": "VEC3"
    },
    {
      "bufferView": 3,
      "componentType": 5126,
      "count": 63463,
      "max": [
        1.0,
        1.0,
        1.0,
        1.0
      ],
      "min": [
        -1.0,
        -1.0,
        -1.0,
        -1.0
      ],
      "type": "VEC4"
    },
    {
      "bufferView": 1,
      "componentType": 5126,
      "count": 63463,
      "max": [
        0.9918213486671448,
        0.9948580265045166
      ],
      "min": [
        0.004728450905531645,
        0.0258634090423584
      ],
      "type": "VEC2"
    },
    {
      "bufferView": 1,
      "byteOffset": 507704,
      "componentType": 5126,
      "count": 63463,
      "max": [
        0.9918213486671448,
        0.9948580265045166
      ],
      "min": [
        0.004728450905531645,
        0.0258634090423584
      ],
      "type": "VEC2"
    },
    {
      "bufferView": 1,
      "byteOffset": 1015408,
      "componentType": 5126,
      "count": 63463,
      "max": [
        0.9918213486671448,
        0.9948580265045166
      ],
      "min": [
        0.004728450905531645,
        0.0258634090423584
      ],
      "type": "VEC2"
    },
    {
      "bufferView": 0,
      "componentType": 5125,
      "count": 298194,
      "type": "SCALAR"
    }
  ],
  "asset": {
    "extras": {
      "author": "e-sfera (https://sketchfab.com/skolskaknjiga)",
      "license": "CC-BY-4.0 (http://creativecommons.org/licenses/by/4.0/)",
      "source": "https://sketchfab.com/3d-models/statue-of-liberty-low-poly-e899267a0951468aaa868e5daf22c290",
      "title": "Statue Of Liberty Low Poly"
    },
    "generator": "Sketchfab-12.68.0",
    "version": "2.0"
  },
  "bufferViews": [
    {
      "buffer": 0,
      "byteLength": 1192776,
      "name": "floatBufferViews",
      "target": 34963
    },
    {
      "buffer": 0,
      "byteLength": 1523112,
      "byteOffset": 1192776,
      "byteStride": 8,
      "name": "floatBufferViews",
      "target": 34962
    },
    {
      "buffer": 0,
      "byteLength": 1523112,
      "byteOffset": 2715888,
      "byteStride": 12,
      "name": "floatBufferViews",
      "target": 34962
    },
    {
      "buffer": 0,
      "byteLength": 1015408,
      "byteOffset": 4239000,
      "byteStride": 16,
      "name": "floatBufferViews",
      "target": 34962
    }
  ],
  "buffers": [
    {
      "byteLength": 5254408,
      "uri": "scene.bin"
    }
  ],
  "extensionsRequired": [
    "KHR_materials_pbrSpecularGlossiness"
  ],
  "extensionsUsed": [
    "KHR_materials_pbrSpecularGlossiness"
  ],
  "images": [
    {
      "uri": "textures/Statue_of_Liberty_VRmtl_001_diffuse.png"
    },
    {
      "uri": "textures/Statue_of_Liberty_VRmtl_001_specularGlossiness.png"
    },
    {
      "uri": "textures/Statue_of_Liberty_VRmtl_001_normal.png"
    }
  ],
  "materials": [
    {
      "doubleSided": true,
      "extensions": {
        "KHR_materials_pbrSpecularGlossiness": {
          "diffuseFactor": [
            1.0,
            1.0,
            1.0,
            1.0
          ],
          "diffuseTexture": {
            "index": 0
          },
          "glossinessFactor": 0.1566991148643327,
          "specularFactor": [
            0.05,
            0.05,
            0.05
          ],
          "specularGlossinessTexture": {
            "index": 1
          }
        }
      },
      "name": "Statue_of_Liberty_VRmtl_001",
      "normalTexture": {
        "index": 2
      }
    }
  ],
  "meshes": [
    {
      "name": "Statue_of_Liberty_Statue_of_Liberty_VRmtl_001_0",
      "primitives": [
        {
          "attributes": {
            "NORMAL": 1,
            "POSITION": 0,
            "TANGENT": 2,
            "TEXCOORD_0": 3,
            "TEXCOORD_1": 4,
            "TEXCOORD_2": 5
          },
          "indices": 6,
          "material": 0,
          "mode": 4
        }
      ]
    }
  ],
  "nodes": [
    {
      "children": [
        1
      ],
      "matrix": [
        1.0,
        0.0,
        0.0,
        0.0,
        0.0,
        2.220446049250313e-16,
        -1.0,
        0.0,
        0.0,
        1.0,
        2.220446049250313e-16,
        0.0,
        0.0,
        0.0,
        0.0,
        1.0
      ],
      "name": "Sketchfab_model"
    },
    {
      "children": [
        2
      ],
      "matrix": [
        1.0,
        0.0,
        0.0,
        0.0,
        0.0,
        0.0,
        1.0,
        0.0,
        0.0,
        -1.0,
        0.0,
        0.0,
        0.0,
        0.0,
        0.0,
        1.0
      ],
      "name": "204a712337734b67a31c8a5d360130ef.fbx"
    },
    {
      "children": [
        3,
        5
      ],
      "name": "RootNode"
    },
    {
      "children": [
        4
      ],
      "matrix": [
        -0.02958369967112806,
        -0.2436714380670625,
        -0.9694065375187533,
        0.0,
        -0.007432741524718373,
        0.9698578402375937,
        -0.24355805074580683,
        0.0,
        0.9995346712681832,
        -2.220446049250313e-16,
        -0.030503129885386837,
        0.0,
        484.63983154296875,
        8296.29296875,
        19031.2578125,
        1.0
      ],
      "name": "CINEMA_4D_Editor"
    },
    {
      "name": "Object_4"
    },
    {
      "children": [
        6
      ],
      "matrix": [
        1.0,
        0.0,
        0.0,
        0.0,
        0.0,
        -1.0,
        -1.2246467991473532e-16,
        0.0,
        0.0,
        1.2246467991473532e-16,
        -1.0,
        0.0,
        -0.000244140625,
        6.227158058713449e-16,
        -10.169720649719238,
        1.0
      ],
      "name": "Statue_of_Liberty"
    },
    {
      "mesh": 0,
      "name": "Statue_of_Liberty_Statue_of_Liberty_VRmtl_001_0"
    }
  ],
  "samplers": [
    {
      "magFilter": 9729,
      "minFilter": 9987,
      "wrapS": 10497,
      "wrapT": 10497
    }
  ],
  "scene": 0,
  "scenes": [
    {
      "name": "Sketchfab_Scene",
      "nodes": [
        0
      ]
    }
  ],
  "textures": [
    {
      "sampler": 0,
      "source": 0
    },
    {
      "sampler": 0,
      "source": 1
    },
    {
      "sampler": 0,
      "source": 2
    }
  ]
}
